<svg width="120" height="120" viewBox="0 0 120 120" fill="none" xmlns="http://www.w3.org/2000/svg">
<g filter="url(#filter0_d_4_919)">
<rect x="20" y="20" width="80" height="80" rx="12" fill="#3E2221" shape-rendering="crispEdges"/>
<rect x="21" y="21" width="78" height="78" rx="11" stroke="#E9C176" stroke-width="2" shape-rendering="crispEdges"/>
<path d="M60 75C57.925 75 55.975 74.6063 54.15 73.8188C52.325 73.0312 50.7375 71.9625 49.3875 70.6125C48.0375 69.2625 46.9688 67.675 46.1812 65.85C45.3937 64.025 45 62.075 45 60C45 57.925 45.3937 55.975 46.1812 54.15C46.9688 52.325 48.0375 50.7375 49.3875 49.3875C50.7375 48.0375 52.325 46.9688 54.15 46.1812C55.975 45.3937 57.925 45 60 45C62.075 45 64.025 45.3937 65.85 46.1812C67.675 46.9688 69.2625 48.0375 70.6125 49.3875C71.9625 50.7375 73.0312 52.325 73.8188 54.15C74.6063 55.975 75 57.925 75 60C75 62.075 74.6063 64.025 73.8188 65.85C73.0312 67.675 71.9625 69.2625 70.6125 70.6125C69.2625 71.9625 67.675 73.0312 65.85 73.8188C64.025 74.6063 62.075 75 60 75ZM67.5 56.25L69.525 55.575L70.125 53.55C69.325 52.35 68.3625 51.3188 67.2375 50.4563C66.1125 49.5938 64.875 48.95 63.525 48.525L61.5 49.95V52.05L67.5 56.25ZM52.5 56.25L58.5 52.05V49.95L56.475 48.525C55.125 48.95 53.8875 49.5938 52.7625 50.4563C51.6375 51.3188 50.675 52.35 49.875 53.55L50.475 55.575L52.5 56.25ZM50.925 67.8L52.65 67.65L53.775 65.625L51.6 59.1L49.5 58.35L48 59.475C48 61.1 48.225 62.5813 48.675 63.9188C49.125 65.2563 49.875 66.55 50.925 67.8ZM60 72C60.65 72 61.2875 71.95 61.9125 71.85C62.5375 71.75 63.15 71.6 63.75 71.4L64.8 69.15L63.825 67.5H56.175L55.2 69.15L56.25 71.4C56.85 71.6 57.4625 71.75 58.0875 71.85C58.7125 71.95 59.35 72 60 72ZM56.625 64.5H63.375L65.475 58.5L60 54.675L54.6 58.5L56.625 64.5ZM69.075 67.8C70.125 66.55 70.875 65.2563 71.325 63.9188C71.775 62.5813 72 61.1 72 59.475L70.5 58.425L68.4 59.1L66.225 65.625L67.35 67.65L69.075 67.8Z" fill="#E9C176"/>
</g>
<defs>
<filter id="filter0_d_4_919" x="0" y="0" width="120" height="120" filterUnits="userSpaceOnUse" color-interpolation-filters="sRGB">
<feFlood flood-opacity="0" result="BackgroundImageFix"/>
<feColorMatrix in="SourceAlpha" type="matrix" values="0 0 0 0 0 0 0 0 0 0 0 0 0 0 0 0 0 0 127 0" result="hardAlpha"/>
<feOffset/>
<feGaussianBlur stdDeviation="10"/>
<feComposite in2="hardAlpha" operator="out"/>
<feColorMatrix type="matrix" values="0 0 0 0 0.772549 0 0 0 0 0.627451 0 0 0 0 0.34902 0 0 0 0.15 0"/>
<feBlend mode="normal" in2="BackgroundImageFix" result="effect1_dropShadow_4_919"/>
<feBlend mode="normal" in="SourceGraphic" in2="effect1_dropShadow_4_919" result="shape"/>
</filter>
</defs>
</svg>
