<svg width="120" height="120" viewBox="0 0 120 120" fill="none" xmlns="http://www.w3.org/2000/svg">
<g filter="url(#filter0_d_4_939)">
<rect x="20" y="20" width="80" height="80" rx="12" fill="#3E2221" shape-rendering="crispEdges"/>
<rect x="21" y="21" width="78" height="78" rx="11" stroke="#E9C176" stroke-width="2" shape-rendering="crispEdges"/>
<path d="M48 68.25V71.25H72V68.25H48ZM48 51.75H51.3C51.175 51.525 51.0938 51.2875 51.0563 51.0375C51.0188 50.7875 51 50.525 51 50.25C51 49 51.4375 47.9375 52.3125 47.0625C53.1875 46.1875 54.25 45.75 55.5 45.75C56.25 45.75 56.9438 45.9438 57.5813 46.3313C58.2188 46.7188 58.775 47.2 59.25 47.775L60 48.75L60.75 47.775C61.2 47.175 61.75 46.6875 62.4 46.3125C63.05 45.9375 63.75 45.75 64.5 45.75C65.75 45.75 66.8125 46.1875 67.6875 47.0625C68.5625 47.9375 69 49 69 50.25C69 50.525 68.9813 50.7875 68.9438 51.0375C68.9062 51.2875 68.825 51.525 68.7 51.75H72C72.825 51.75 73.5312 52.0437 74.1187 52.6312C74.7062 53.2188 75 53.925 75 54.75V71.25C75 72.075 74.7062 72.7812 74.1187 73.3687C73.5312 73.9562 72.825 74.25 72 74.25H48C47.175 74.25 46.4688 73.9562 45.8813 73.3687C45.2938 72.7812 45 72.075 45 71.25V54.75C45 53.925 45.2938 53.2188 45.8813 52.6312C46.4688 52.0437 47.175 51.75 48 51.75ZM48 63.75H72V54.75H64.35L67.5 59.025L65.1 60.75L60 53.85L54.9 60.75L52.5 59.025L55.575 54.75H48V63.75ZM55.5 51.75C55.925 51.75 56.2812 51.6062 56.5688 51.3187C56.8563 51.0312 57 50.675 57 50.25C57 49.825 56.8563 49.4688 56.5688 49.1813C56.2812 48.8938 55.925 48.75 55.5 48.75C55.075 48.75 54.7188 48.8938 54.4312 49.1813C54.1437 49.4688 54 49.825 54 50.25C54 50.675 54.1437 51.0312 54.4312 51.3187C54.7188 51.6062 55.075 51.75 55.5 51.75ZM64.5 51.75C64.925 51.75 65.2812 51.6062 65.5688 51.3187C65.8563 51.0312 66 50.675 66 50.25C66 49.825 65.8563 49.4688 65.5688 49.1813C65.2812 48.8938 64.925 48.75 64.5 48.75C64.075 48.75 63.7188 48.8938 63.4312 49.1813C63.1437 49.4688 63 49.825 63 50.25C63 50.675 63.1437 51.0312 63.4312 51.3187C63.7188 51.6062 64.075 51.75 64.5 51.75Z" fill="#E9C176"/>
</g>
<defs>
<filter id="filter0_d_4_939" x="0" y="0" width="120" height="120" filterUnits="userSpaceOnUse" color-interpolation-filters="sRGB">
<feFlood flood-opacity="0" result="BackgroundImageFix"/>
<feColorMatrix in="SourceAlpha" type="matrix" values="0 0 0 0 0 0 0 0 0 0 0 0 0 0 0 0 0 0 127 0" result="hardAlpha"/>
<feOffset/>
<feGaussianBlur stdDeviation="10"/>
<feComposite in2="hardAlpha" operator="out"/>
<feColorMatrix type="matrix" values="0 0 0 0 0.772549 0 0 0 0 0.627451 0 0 0 0 0.34902 0 0 0 0.15 0"/>
<feBlend mode="normal" in2="BackgroundImageFix" result="effect1_dropShadow_4_939"/>
<feBlend mode="normal" in="SourceGraphic" in2="effect1_dropShadow_4_939" result="shape"/>
</filter>
</defs>
</svg>
